<svg xmlns="http://www.w3.org/2000/svg" viewBox="0 0 91.25 215"><defs><style>.cls-1{fill-rule:evenodd;}</style></defs><title>Asset 5</title><g id="Layer_2" data-name="Layer 2"><g id="Layer_1-2" data-name="Layer 1"><path class="cls-1" d="M91,182s1-12-1-15a77.62,77.62,0,0,1-4-7l-1-8-6-2-1-13,2-8,1-11-5-5v-6l4-6,3-3L81,81l-2-9H72l-3-2-4-8s-2-19-2-20-3-14-3-14L45,20l-7-7L35,7,31,2,28,0,25,2,21,12,12,38,6,58,4,68,3,75,1,96v4l-1,9v11l2,4,3,2,5,2,2,4v9l2,2,4,12,4,13,4,13,3,7,7,6,6,6,3,5,4,6,6,4H65l-7-7s-.33-10.67,2-15,4.33-11.33,9-13a95,95,0,0,1,13-3Z"/></g></g></svg>