<svg xmlns="http://www.w3.org/2000/svg" viewBox="0 0 89.33 225.67"><defs><style>.cls-1{fill-rule:evenodd;}</style></defs><title>Asset 4</title><g id="Layer_2" data-name="Layer 2"><g id="Layer_1-2" data-name="Layer 1"><path class="cls-1" d="M89,105V97.67L87.67,89l-17-46.33L57.33,0,48.67,12.33l-14,16L33,57.67,23,66.33l-5,17L8.67,103l7,7.33.66,5,2,4-3,4-2.33,4-.33,3,3,5.67L14,145.33l.67,9L10.33,160,7,165.33,2.33,172l-2,5L0,190.33l7.46-1.27L13.67,188,22,195.33l3.67,9.34,1.66,10.66L24,222.67l3.33,3,9-.34L41.67,221l9-4.33,5-7.67L62,197.33l1-13,4.33-16L73.67,158l3.66-7.67,2-11.66,2.34-6s7.7-7.06,7.66-8C89,117,89,105,89,105Z"/></g></g></svg>