<svg xmlns="http://www.w3.org/2000/svg" viewBox="0 0 372.33 425"><defs><style>.cls-1{fill-rule:evenodd;}</style></defs><title>Asset 2</title><g id="Layer_2" data-name="Layer 2"><g id="Layer_1-2" data-name="Layer 1"><path class="cls-1" d="M91,272s1-12-1-15a77.62,77.62,0,0,1-4-7l-1-8-6-2-1-13,2-8,1-11-5-5v-6l4-6,3-3-2-17-2-9H72l-3-2-4-8s-2-19-2-20-3-14-3-14l-15-8-7-7-3-6-4-5-3-2-3,2-4,10-9,26L6,148,4,158l-1,7L1,186v4l-1,9v11l2,4,3,2,5,2,2,4v9l2,2,4,12,4,13,4,13,3,7,7,6,6,6,3,5,4,6,6,4H65l-7-7s-.33-10.67,2-15,4.33-11.33,9-13a95,95,0,0,1,13-3Z"/><path class="cls-1" d="M99.67,296.33l-11,15.34-6,11-3.67-4v5.66l-1.67,27-1,21.34,5.34,9,9,2.66L102.33,387l12.34,4,64.66,1,58-2.33L259,390l13.33-5,14-7L286,320.67l-7.33-15.34-15-25.33L257,267.33l-22-.66-51.67-4.34s-33.73,3.55-34.66,3.67c-8,1-32,5.33-28,.33,1.71-2.14-13,18-13,18Z"/><path class="cls-1" d="M372,183v-7.33L370.67,167l-17-46.33L340.33,78l-8.66,12.33-14,16L316,135.67l-10,8.66-5,17L291.67,181l7,7.33.66,5,2,4-3,4-2.33,4-.33,3,3,5.67L297,223.33l.67,9L293.33,238,290,243.33,285.33,250l-2,5L283,268.33l7.46-1.27,6.21-1.06,8.33,7.33,3.67,9.34,1.66,10.66L307,300.67l3.33,3,9-.34,5.34-4.33,9-4.33,5-7.67L345,275.33l1-13,4.33-16L356.67,236l3.66-7.67,2-11.66,2.34-6s7.7-7.06,7.66-8C372,195,372,183,372,183Z"/><path class="cls-1" d="M91,272s1-12-1-15a77.62,77.62,0,0,1-4-7l-1-8-6-2-1-13,2-8,1-11-5-5v-6l4-6,3-3-2-17-2-9H72l-3-2-4-8s-2-19-2-20-3-14-3-14l-15-8-7-7-3-6-4-5-4.33-.67L45.33,59l15-16.67,13.34-7.66,16.33-9,17.67-10,10,5.33,27.66,16.33,22,13L174.67,55l10,10,4,3.67L193.33,67l4.34-11L208,49.37,224.67,39,249,27.33l21.33-10,10,5.67L285,25l9.67,7,12.66,5,11.34,6.67,10,12.66L335,66.67,340.33,78l-8.66,12.33-14,16L316,135.67l-10,8.66-5,17L291.67,181l1.66,57-4,6.67-4,5.33-2,5L283,268.33,277.33,273l-13.66,7L257,267.33l-22-.66-51.67-4.34s-33.73,3.55-34.66,3.67c-8,1-32,5.33-28,.33,1.71-2.14-13,18-13,18Zm195,48,5-8,5-2v59l-5,5-5,4ZM77,373l-5-9-3-23V325l1-14,10,8-2,25Z"/><path class="cls-1" d="M105,283,92,272l-9-4-6-1-7,2-5,4-5,9-2,9v6l4,5,8,7,3,4,5,5s-.33-7.33,0-9,2.67-9.33,7-14a68.83,68.83,0,0,1,11-9Zm161-5s7.33,0,9,1,6.33,1.33,9,5,6,6.33,7,11,2,13,2,13l-1,4,9-6,7-6s2.67-7.33,2-12-2.33-10.67-5-15-7.67-7-10-7-12,3-12,3ZM73,366l6,11s1.33,3,3,4,11,4,11,4l22,5,29,.67L181,392l44-2h31s11.33-2.33,16-5,14-7,14-7l6-5,5-5,1,10,2,10v7s-1,5.33-2,5-7,5.67-11,8-7,4-7,4l-18,4-23,3-38,4-12,2-4-2-3-1-3,2-24-4s-21-.67-24-1-20.33-1.67-23-2-15-3-15-3a39.88,39.88,0,0,1-8-4c-3.33-2.33-7-5-7-5l-5-5-3-8v-5l2-5ZM185,65s-.67-8.33-4-13-10-10-10-10l-3-2-2-2V34s-8-11.67-9-13S147,0,147,0H116l-3,3-4,4s-2.67,2-3,3,1,6,1,6l44,25,13,8,7,4,9,8Zm8,0s3-11,3-12,9-12,9-12l3-4,5,1a4.53,4.53,0,0,0,1-2,15.23,15.23,0,0,0,0-4l5-6,3-13,3-5,1-8h31l4,7,4,3a45.33,45.33,0,0,1,6,4,3.55,3.55,0,0,1,1,3l-5,3L230,37,207,51l-9,5Z"/></g></g></svg>