<svg xmlns="http://www.w3.org/2000/svg" viewBox="0 0 313.66 362.33"><defs><style>.cls-1{fill-rule:evenodd;}</style></defs><title>Asset 1</title><g id="Layer_2" data-name="Layer 2"><g id="Layer_1-2" data-name="Layer 1"><path class="cls-1" d="M64.33,256.33s1-12-1-15a77.62,77.62,0,0,1-4-7l-1-8-6-2-1-13,2-8,1-11-5-5v-6l4-6,3-3-2-17-2-9h-7l-3-2-4-8s-2-19-2-20-3-14-3-14l-15-8-7-7-3-6-4-5L0,75.66,18.66,43.33l15-16.67L47,19l16.33-9L81,0,91,5.33l27.66,16.33,22,13L148,39.33l10,10L162,53l4.66-1.67,4.34-11,10.35-6.63L198,23.33l24.33-11.67,21.33-10,10,5.67,4.67,2,9.67,7,12.66,5L292,28l10,12.66L308.33,51l5.33,11.33L305,74.66l-14,16L289.33,120l-10,8.66-5,17L265,165.33l1.66,57-4,6.67-4,5.33-2,5-.33,13.33-5.67,4.67-13.66,7-6.67-12.67-22-.66-51.67-4.34s-33.73,3.55-34.66,3.67c-8,1-32,5.33-28,.33,1.71-2.14-13,18-13,18Zm195,48,5-8,5-2v59l-5,5-5,4Zm-209,53-5-9-3-23v-16l1-14,10,8-2,25Z"/></g></g></svg>